<svg aria-roledescription="gitGraph" role="graphics-document document" viewBox="-237.1875 -18.5 1195.1875 547.750244140625" style="max-width: 1195.1875px;" xmlns="http://www.w3.org/2000/svg" width="100%" id="generatedDiagram"><style>#generatedDiagram{font-family:"trebuchet ms",verdana,arial,sans-serif;font-size:16px;fill:#333;}#generatedDiagram .error-icon{fill:#552222;}#generatedDiagram .error-text{fill:#552222;stroke:#552222;}#generatedDiagram .edge-thickness-normal{stroke-width:1px;}#generatedDiagram .edge-thickness-thick{stroke-width:3.5px;}#generatedDiagram .edge-pattern-solid{stroke-dasharray:0;}#generatedDiagram .edge-thickness-invisible{stroke-width:0;fill:none;}#generatedDiagram .edge-pattern-dashed{stroke-dasharray:3;}#generatedDiagram .edge-pattern-dotted{stroke-dasharray:2;}#generatedDiagram .marker{fill:#333333;stroke:#333333;}#generatedDiagram .marker.cross{stroke:#333333;}#generatedDiagram svg{font-family:"trebuchet ms",verdana,arial,sans-serif;font-size:16px;}#generatedDiagram p{margin:0;}#generatedDiagram .commit-id,#generatedDiagram .commit-msg,#generatedDiagram .branch-label{fill:lightgrey;color:lightgrey;font-family:'trebuchet ms',verdana,arial,sans-serif;font-family:var(--mermaid-font-family);}#generatedDiagram .branch-label0{fill:#ffffff;}#generatedDiagram .commit0{stroke:hsl(240, 100%, 46.2745098039%);fill:hsl(240, 100%, 46.2745098039%);}#generatedDiagram .commit-highlight0{stroke:hsl(60, 100%, 3.7254901961%);fill:hsl(60, 100%, 3.7254901961%);}#generatedDiagram .label0{fill:hsl(240, 100%, 46.2745098039%);}#generatedDiagram .arrow0{stroke:hsl(240, 100%, 46.2745098039%);}#generatedDiagram .branch-label1{fill:black;}#generatedDiagram .commit1{stroke:hsl(60, 100%, 43.5294117647%);fill:hsl(60, 100%, 43.5294117647%);}#generatedDiagram .commit-highlight1{stroke:rgb(0, 0, 160.5);fill:rgb(0, 0, 160.5);}#generatedDiagram .label1{fill:hsl(60, 100%, 43.5294117647%);}#generatedDiagram .arrow1{stroke:hsl(60, 100%, 43.5294117647%);}#generatedDiagram .branch-label2{fill:black;}#generatedDiagram .commit2{stroke:hsl(80, 100%, 46.2745098039%);fill:hsl(80, 100%, 46.2745098039%);}#generatedDiagram .commit-highlight2{stroke:rgb(48.8333333334, 0, 146.5000000001);fill:rgb(48.8333333334, 0, 146.5000000001);}#generatedDiagram .label2{fill:hsl(80, 100%, 46.2745098039%);}#generatedDiagram .arrow2{stroke:hsl(80, 100%, 46.2745098039%);}#generatedDiagram .branch-label3{fill:#ffffff;}#generatedDiagram .commit3{stroke:hsl(210, 100%, 46.2745098039%);fill:hsl(210, 100%, 46.2745098039%);}#generatedDiagram .commit-highlight3{stroke:rgb(146.5000000001, 73.2500000001, 0);fill:rgb(146.5000000001, 73.2500000001, 0);}#generatedDiagram .label3{fill:hsl(210, 100%, 46.2745098039%);}#generatedDiagram .arrow3{stroke:hsl(210, 100%, 46.2745098039%);}#generatedDiagram .branch-label4{fill:black;}#generatedDiagram .commit4{stroke:hsl(180, 100%, 46.2745098039%);fill:hsl(180, 100%, 46.2745098039%);}#generatedDiagram .commit-highlight4{stroke:rgb(146.5000000001, 0, 0);fill:rgb(146.5000000001, 0, 0);}#generatedDiagram .label4{fill:hsl(180, 100%, 46.2745098039%);}#generatedDiagram .arrow4{stroke:hsl(180, 100%, 46.2745098039%);}#generatedDiagram .branch-label5{fill:black;}#generatedDiagram .commit5{stroke:hsl(150, 100%, 46.2745098039%);fill:hsl(150, 100%, 46.2745098039%);}#generatedDiagram .commit-highlight5{stroke:rgb(146.5000000001, 0, 73.2500000001);fill:rgb(146.5000000001, 0, 73.2500000001);}#generatedDiagram .label5{fill:hsl(150, 100%, 46.2745098039%);}#generatedDiagram .arrow5{stroke:hsl(150, 100%, 46.2745098039%);}#generatedDiagram .branch-label6{fill:black;}#generatedDiagram .commit6{stroke:hsl(300, 100%, 46.2745098039%);fill:hsl(300, 100%, 46.2745098039%);}#generatedDiagram .commit-highlight6{stroke:rgb(0, 146.5000000001, 0);fill:rgb(0, 146.5000000001, 0);}#generatedDiagram .label6{fill:hsl(300, 100%, 46.2745098039%);}#generatedDiagram .arrow6{stroke:hsl(300, 100%, 46.2745098039%);}#generatedDiagram .branch-label7{fill:black;}#generatedDiagram .commit7{stroke:hsl(0, 100%, 46.2745098039%);fill:hsl(0, 100%, 46.2745098039%);}#generatedDiagram .commit-highlight7{stroke:rgb(0, 146.5000000001, 146.5000000001);fill:rgb(0, 146.5000000001, 146.5000000001);}#generatedDiagram .label7{fill:hsl(0, 100%, 46.2745098039%);}#generatedDiagram .arrow7{stroke:hsl(0, 100%, 46.2745098039%);}#generatedDiagram .branch{stroke-width:1;stroke:#333333;stroke-dasharray:2;}#generatedDiagram .commit-label{font-size:10px;fill:#000021;}#generatedDiagram .commit-label-bkg{font-size:10px;fill:#ffffde;opacity:0.5;}#generatedDiagram .tag-label{font-size:10px;fill:#131300;}#generatedDiagram .tag-label-bkg{fill:#ECECFF;stroke:hsl(240, 60%, 86.2745098039%);}#generatedDiagram .tag-hole{fill:#333;}#generatedDiagram .commit-merge{stroke:#ECECFF;fill:#ECECFF;}#generatedDiagram .commit-reverse{stroke:#ECECFF;fill:#ECECFF;stroke-width:3;}#generatedDiagram .commit-highlight-inner{stroke:#ECECFF;fill:#ECECFF;}#generatedDiagram .arrow{stroke-width:8;stroke-linecap:round;fill:none;}#generatedDiagram .gitTitleText{text-anchor:middle;font-size:18px;fill:#333;}#generatedDiagram :root{--mermaid-font-family:"trebuchet ms",verdana,arial,sans-serif;}</style><g/><g class="commit-bullets"/><g class="commit-labels"/><g><line class="branch branch0" y2="0" x2="950" y1="0" x1="0"/><rect transform="translate(-19, -9.25)" height="22.5" width="52.9921875" y="-1.25" x="-68.9921875" ry="4" rx="4" class="branchLabelBkg label0"/><g class="branchLabel"><g transform="translate(-78.9921875, -10.25)" class="label branch-label0"><text><tspan class="row" x="0" dy="1em" xml:space="preserve">main</tspan></text></g></g><line class="branch branch1" y2="90" x2="950" y1="90" x1="0"/><rect transform="translate(-19, 80.75)" height="22.5" width="74.421875" y="-1.25" x="-90.421875" ry="4" rx="4" class="branchLabelBkg label1"/><g class="branchLabel"><g transform="translate(-100.421875, 79.75)" class="label branch-label1"><text><tspan class="row" x="0" dy="1em" xml:space="preserve">develop</tspan></text></g></g><line class="branch branch2" y2="180" x2="950" y1="180" x1="0"/><rect transform="translate(-19, 170.75)" height="22.5" width="167.796875" y="-1.25" x="-183.796875" ry="4" rx="4" class="branchLabelBkg label2"/><g class="branchLabel"><g transform="translate(-193.796875, 169.75)" class="label branch-label2"><text><tspan class="row" x="0" dy="1em" xml:space="preserve">feature/new-feature</tspan></text></g></g><line class="branch branch3" y2="270" x2="950" y1="270" x1="0"/><rect transform="translate(-19, 260.75)" height="22.5" width="194.1875" y="-1.25" x="-210.1875" ry="4" rx="4" class="branchLabelBkg label3"/><g class="branchLabel"><g transform="translate(-220.1875, 259.75)" class="label branch-label3"><text><tspan class="row" x="0" dy="1em" xml:space="preserve">feature/another-feature</tspan></text></g></g><line class="branch branch4" y2="360" x2="950" y1="360" x1="0"/><rect transform="translate(-19, 350.75)" height="22.5" width="115.3125" y="-1.25" x="-131.3125" ry="4" rx="4" class="branchLabelBkg label4"/><g class="branchLabel"><g transform="translate(-141.3125, 349.75)" class="label branch-label4"><text><tspan class="row" x="0" dy="1em" xml:space="preserve">release/1.0.0</tspan></text></g></g><line class="branch branch5" y2="450" x2="950" y1="450" x1="0"/><rect transform="translate(-19, 440.75)" height="22.5" width="150.7734375" y="-1.25" x="-166.7734375" ry="4" rx="4" class="branchLabelBkg label5"/><g class="branchLabel"><g transform="translate(-176.7734375, 439.75)" class="label branch-label5"><text><tspan class="row" x="0" dy="1em" xml:space="preserve">hotfix/critical-bug</tspan></text></g></g></g><g class="commit-arrows"><path class="arrow arrow1" d="M 10 0 L 10 70 A 20 20, 0, 0, 0, 30 90 L 60 90"/><path class="arrow arrow2" d="M 60 90 L 60 160 A 20 20, 0, 0, 0, 80 180 L 110 180"/><path class="arrow arrow2" d="M 110 180 L 160 180"/><path class="arrow arrow1" d="M 60 90 L 210 90"/><path class="arrow arrow2" d="M 160 180 L 190 180 A 20 20, 0, 0, 0, 210 160 L 210 90"/><path class="arrow arrow1" d="M 210 90 L 260 90"/><path class="arrow arrow3" d="M 260 90 L 260 250 A 20 20, 0, 0, 0, 280 270 L 310 270"/><path class="arrow arrow3" d="M 310 270 L 360 270"/><path class="arrow arrow1" d="M 260 90 L 410 90"/><path class="arrow arrow3" d="M 360 270 L 390 270 A 20 20, 0, 0, 0, 410 250 L 410 90"/><path class="arrow arrow1" d="M 410 90 L 460 90"/><path class="arrow arrow1" d="M 460 90 L 510 90"/><path class="arrow arrow4" d="M 510 90 L 510 340 A 20 20, 0, 0, 0, 530 360 L 560 360"/><path class="arrow arrow1" d="M 510 90 L 610 90"/><path class="arrow arrow4" d="M 560 360 L 590 360 A 20 20, 0, 0, 0, 610 340 L 610 90"/><path class="arrow arrow1" d="M 610 90 L 660 90"/><path class="arrow arrow1" d="M 660 90 L 710 90"/><path class="arrow arrow5" d="M 710 90 L 710 430 A 20 20, 0, 0, 0, 730 450 L 760 450"/><path class="arrow arrow1" d="M 710 90 L 810 90"/><path class="arrow arrow5" d="M 760 450 L 790 450 A 20 20, 0, 0, 0, 810 430 L 810 90"/><path class="arrow arrow1" d="M 810 90 L 860 90"/><path class="arrow arrow1" d="M 860 90 L 910 90"/></g><g class="commit-bullets"><circle class="commit Initial commit commit0" r="10" cy="0" cx="10"/><circle class="commit Add core functionalities commit1" r="10" cy="90" cx="60"/><circle class="commit Implement the new feature commit2" r="10" cy="180" cx="110"/><circle class="commit Write unit tests for new feature commit2" r="10" cy="180" cx="160"/><circle class="commit Merge new feature commit1" r="9" cy="90" cx="210"/><circle class="commit commit-merge Merge new feature commit1" r="6" cy="90" cx="210"/><circle class="commit Integrate and test the new feature commit1" r="10" cy="90" cx="260"/><circle class="commit Implement another feature commit3" r="10" cy="270" cx="310"/><circle class="commit Write integration tests commit3" r="10" cy="270" cx="360"/><circle class="commit Merge another feature commit1" r="9" cy="90" cx="410"/><circle class="commit commit-merge Merge another feature commit1" r="6" cy="90" cx="410"/><circle class="commit Refactor codebase commit1" r="10" cy="90" cx="460"/><circle class="commit Configure CI/CD pipeline commit1" r="10" cy="90" cx="510"/><circle class="commit Prepare release 1.0.0 commit4" r="10" cy="360" cx="560"/><circle class="commit Merge release 1.0.0 commit1" r="9" cy="90" cx="610"/><circle class="commit commit-merge Merge release 1.0.0 commit1" r="6" cy="90" cx="610"/><circle class="commit Update Documentation commit1" r="10" cy="90" cx="660"/><circle class="commit Bug fixes commit1" r="10" cy="90" cx="710"/><circle class="commit Fix critical bug commit5" r="10" cy="450" cx="760"/><circle class="commit Merge hotfix commit1" r="9" cy="90" cx="810"/><circle class="commit commit-merge Merge hotfix commit1" r="6" cy="90" cx="810"/><circle class="commit Enhance performance commit1" r="10" cy="90" cx="860"/><circle class="commit Implement new API endpoint commit1" r="10" cy="90" cx="910"/></g><g class="commit-labels"><g transform="translate(-35.18953125, 31.37484375) rotate(-45, 0, 0)"><rect height="15.5" width="66.8671875" y="13.5" x="-23.43359375" class="commit-label-bkg"/><text class="commit-label" y="25" x="-21.43359375">Initial commit</text></g><g transform="translate(-52.08171874999999, 46.48890625) rotate(-45, 50, 90)"><rect height="15.5" width="111.3203125" y="103.5" x="4.33984375" class="commit-label-bkg"/><text class="commit-label" y="115" x="6.33984375">Add core functionalities</text></g><g transform="translate(-58.3071875, 52.0590625) rotate(-45, 100, 180)"><rect height="15.55078125" width="127.703125" y="193.5" x="46.1484375" class="commit-label-bkg"/><text class="commit-label" y="205" x="48.1484375">Implement the new feature</text></g><g transform="translate(-65.61921875, 58.60140625) rotate(-45, 150, 180)"><rect height="15.5" width="146.9453125" y="193.5" x="86.52734375" class="commit-label-bkg"/><text class="commit-label" y="205" x="88.52734375">Write unit tests for new feature</text></g><g transform="translate(-43.398125, 38.719375) rotate(-45, 200, 90)"><rect height="15.55078125" width="88.46875" y="103.5" x="165.765625" class="commit-label-bkg"/><text class="commit-label" y="115" x="167.765625">Merge new feature</text></g><g transform="translate(-70.74921875000001, 63.19140625) rotate(-45, 250, 90)"><rect height="15.55078125" width="160.4453125" y="103.5" x="179.77734375" class="commit-label-bkg"/><text class="commit-label" y="115" x="181.77734375">Integrate and test the new feature</text></g><g transform="translate(-57.7728125, 51.5809375) rotate(-45, 300, 270)"><rect height="15.55078125" width="126.296875" y="283.5" x="246.8515625" class="commit-label-bkg"/><text class="commit-label" y="295" x="248.8515625">Implement another feature</text></g><g transform="translate(-49.76609375, 44.41703125) rotate(-45, 350, 270)"><rect height="15.55078125" width="105.2265625" y="283.5" x="307.38671875" class="commit-label-bkg"/><text class="commit-label" y="295" x="309.38671875">Write integration tests</text></g><g transform="translate(-49.668124999999996, 44.329375) rotate(-45, 400, 90)"><rect height="15.55078125" width="104.96875" y="103.5" x="357.515625" class="commit-label-bkg"/><text class="commit-label" y="115" x="359.515625">Merge another feature</text></g><g transform="translate(-42.7153125, 38.108437499999994) rotate(-45, 450, 90)"><rect height="15.5" width="86.671875" y="103.5" x="416.6640625" class="commit-label-bkg"/><text class="commit-label" y="115" x="418.6640625">Refactor codebase</text></g><g transform="translate(-53.67, 47.91) rotate(-45, 500, 90)"><rect height="15.55078125" width="115.5" y="103.5" x="452.25" class="commit-label-bkg"/><text class="commit-label" y="115" x="454.25">Configure CI/CD pipeline</text></g><g transform="translate(-47.863125000000004, 42.714375) rotate(-45, 550, 360)"><rect height="15.55078125" width="100.21875" y="373.5" x="509.890625" class="commit-label-bkg"/><text class="commit-label" y="385" x="511.890625">Prepare release 1.0.0</text></g><g transform="translate(-44.9359375, 40.0953125) rotate(-45, 600, 90)"><rect height="15.55078125" width="92.515625" y="103.5" x="563.7421875" class="commit-label-bkg"/><text class="commit-label" y="115" x="565.7421875">Merge release 1.0.0</text></g><g transform="translate(-50.558749999999996, 45.12625) rotate(-45, 650, 90)"><rect height="15.55078125" width="107.3125" y="103.5" x="606.34375" class="commit-label-bkg"/><text class="commit-label" y="115" x="608.34375">Update Documentation</text></g><g transform="translate(-26.583125, 23.674374999999998) rotate(-45, 700, 90)"><rect height="15.55078125" width="44.21875" y="103.5" x="687.890625" class="commit-label-bkg"/><text class="commit-label" y="115" x="689.890625">Bug fixes</text></g><g transform="translate(-36.70359375, 32.729531249999994) rotate(-45, 750, 450)"><rect height="15.55078125" width="70.8515625" y="463.5" x="724.57421875" class="commit-label-bkg"/><text class="commit-label" y="475" x="726.57421875">Fix critical bug</text></g><g transform="translate(-32.686875, 29.135625) rotate(-45, 800, 90)"><rect height="15.55078125" width="60.28125" y="103.5" x="779.859375" class="commit-label-bkg"/><text class="commit-label" y="115" x="781.859375">Merge hotfix</text></g><g transform="translate(-48.43015625, 43.22171875) rotate(-45, 850, 90)"><rect height="15.55078125" width="101.7109375" y="103.5" x="809.14453125" class="commit-label-bkg"/><text class="commit-label" y="115" x="811.14453125">Enhance performance</text></g><g transform="translate(-60.340781250000006, 53.87859375) rotate(-45, 900, 90)"><rect height="15.55078125" width="133.0546875" y="103.5" x="843.47265625" class="commit-label-bkg"/><text class="commit-label" y="115" x="845.47265625">Implement new API endpoint</text></g></g></svg>