<svg aria-roledescription="gitGraph" role="graphics-document document" viewBox="-151.5078125 -18.5 959.5078125 662.5630493164062" style="max-width: 959.5078125px;" xmlns="http://www.w3.org/2000/svg" width="100%" id="generatedDiagram"><style>#generatedDiagram{font-family:"trebuchet ms",verdana,arial,sans-serif;font-size:16px;fill:#333;}#generatedDiagram .error-icon{fill:#552222;}#generatedDiagram .error-text{fill:#552222;stroke:#552222;}#generatedDiagram .edge-thickness-normal{stroke-width:1px;}#generatedDiagram .edge-thickness-thick{stroke-width:3.5px;}#generatedDiagram .edge-pattern-solid{stroke-dasharray:0;}#generatedDiagram .edge-thickness-invisible{stroke-width:0;fill:none;}#generatedDiagram .edge-pattern-dashed{stroke-dasharray:3;}#generatedDiagram .edge-pattern-dotted{stroke-dasharray:2;}#generatedDiagram .marker{fill:#333333;stroke:#333333;}#generatedDiagram .marker.cross{stroke:#333333;}#generatedDiagram svg{font-family:"trebuchet ms",verdana,arial,sans-serif;font-size:16px;}#generatedDiagram p{margin:0;}#generatedDiagram .commit-id,#generatedDiagram .commit-msg,#generatedDiagram .branch-label{fill:lightgrey;color:lightgrey;font-family:'trebuchet ms',verdana,arial,sans-serif;font-family:var(--mermaid-font-family);}#generatedDiagram .branch-label0{fill:#ffffff;}#generatedDiagram .commit0{stroke:hsl(240, 100%, 46.2745098039%);fill:hsl(240, 100%, 46.2745098039%);}#generatedDiagram .commit-highlight0{stroke:hsl(60, 100%, 3.7254901961%);fill:hsl(60, 100%, 3.7254901961%);}#generatedDiagram .label0{fill:hsl(240, 100%, 46.2745098039%);}#generatedDiagram .arrow0{stroke:hsl(240, 100%, 46.2745098039%);}#generatedDiagram .branch-label1{fill:black;}#generatedDiagram .commit1{stroke:hsl(60, 100%, 43.5294117647%);fill:hsl(60, 100%, 43.5294117647%);}#generatedDiagram .commit-highlight1{stroke:rgb(0, 0, 160.5);fill:rgb(0, 0, 160.5);}#generatedDiagram .label1{fill:hsl(60, 100%, 43.5294117647%);}#generatedDiagram .arrow1{stroke:hsl(60, 100%, 43.5294117647%);}#generatedDiagram .branch-label2{fill:black;}#generatedDiagram .commit2{stroke:hsl(80, 100%, 46.2745098039%);fill:hsl(80, 100%, 46.2745098039%);}#generatedDiagram .commit-highlight2{stroke:rgb(48.8333333334, 0, 146.5000000001);fill:rgb(48.8333333334, 0, 146.5000000001);}#generatedDiagram .label2{fill:hsl(80, 100%, 46.2745098039%);}#generatedDiagram .arrow2{stroke:hsl(80, 100%, 46.2745098039%);}#generatedDiagram .branch-label3{fill:#ffffff;}#generatedDiagram .commit3{stroke:hsl(210, 100%, 46.2745098039%);fill:hsl(210, 100%, 46.2745098039%);}#generatedDiagram .commit-highlight3{stroke:rgb(146.5000000001, 73.2500000001, 0);fill:rgb(146.5000000001, 73.2500000001, 0);}#generatedDiagram .label3{fill:hsl(210, 100%, 46.2745098039%);}#generatedDiagram .arrow3{stroke:hsl(210, 100%, 46.2745098039%);}#generatedDiagram .branch-label4{fill:black;}#generatedDiagram .commit4{stroke:hsl(180, 100%, 46.2745098039%);fill:hsl(180, 100%, 46.2745098039%);}#generatedDiagram .commit-highlight4{stroke:rgb(146.5000000001, 0, 0);fill:rgb(146.5000000001, 0, 0);}#generatedDiagram .label4{fill:hsl(180, 100%, 46.2745098039%);}#generatedDiagram .arrow4{stroke:hsl(180, 100%, 46.2745098039%);}#generatedDiagram .branch-label5{fill:black;}#generatedDiagram .commit5{stroke:hsl(150, 100%, 46.2745098039%);fill:hsl(150, 100%, 46.2745098039%);}#generatedDiagram .commit-highlight5{stroke:rgb(146.5000000001, 0, 73.2500000001);fill:rgb(146.5000000001, 0, 73.2500000001);}#generatedDiagram .label5{fill:hsl(150, 100%, 46.2745098039%);}#generatedDiagram .arrow5{stroke:hsl(150, 100%, 46.2745098039%);}#generatedDiagram .branch-label6{fill:black;}#generatedDiagram .commit6{stroke:hsl(300, 100%, 46.2745098039%);fill:hsl(300, 100%, 46.2745098039%);}#generatedDiagram .commit-highlight6{stroke:rgb(0, 146.5000000001, 0);fill:rgb(0, 146.5000000001, 0);}#generatedDiagram .label6{fill:hsl(300, 100%, 46.2745098039%);}#generatedDiagram .arrow6{stroke:hsl(300, 100%, 46.2745098039%);}#generatedDiagram .branch-label7{fill:black;}#generatedDiagram .commit7{stroke:hsl(0, 100%, 46.2745098039%);fill:hsl(0, 100%, 46.2745098039%);}#generatedDiagram .commit-highlight7{stroke:rgb(0, 146.5000000001, 146.5000000001);fill:rgb(0, 146.5000000001, 146.5000000001);}#generatedDiagram .label7{fill:hsl(0, 100%, 46.2745098039%);}#generatedDiagram .arrow7{stroke:hsl(0, 100%, 46.2745098039%);}#generatedDiagram .branch{stroke-width:1;stroke:#333333;stroke-dasharray:2;}#generatedDiagram .commit-label{font-size:10px;fill:#000021;}#generatedDiagram .commit-label-bkg{font-size:10px;fill:#ffffde;opacity:0.5;}#generatedDiagram .tag-label{font-size:10px;fill:#131300;}#generatedDiagram .tag-label-bkg{fill:#ECECFF;stroke:hsl(240, 60%, 86.2745098039%);}#generatedDiagram .tag-hole{fill:#333;}#generatedDiagram .commit-merge{stroke:#ECECFF;fill:#ECECFF;}#generatedDiagram .commit-reverse{stroke:#ECECFF;fill:#ECECFF;stroke-width:3;}#generatedDiagram .commit-highlight-inner{stroke:#ECECFF;fill:#ECECFF;}#generatedDiagram .arrow{stroke-width:8;stroke-linecap:round;fill:none;}#generatedDiagram .gitTitleText{text-anchor:middle;font-size:18px;fill:#333;}#generatedDiagram :root{--mermaid-font-family:"trebuchet ms",verdana,arial,sans-serif;}</style><g/><g class="commit-bullets"/><g class="commit-labels"/><g><line class="branch branch0" y2="0" x2="800" y1="0" x1="0"/><rect transform="translate(-19, -9.25)" height="22.5" width="52.9921875" y="-1.25" x="-68.9921875" ry="4" rx="4" class="branchLabelBkg label0"/><g class="branchLabel"><g transform="translate(-78.9921875, -10.25)" class="label branch-label0"><text><tspan class="row" x="0" dy="1em" xml:space="preserve">main</tspan></text></g></g><line class="branch branch1" y2="90" x2="800" y1="90" x1="0"/><rect transform="translate(-19, 80.75)" height="22.5" width="74.421875" y="-1.25" x="-90.421875" ry="4" rx="4" class="branchLabelBkg label1"/><g class="branchLabel"><g transform="translate(-100.421875, 79.75)" class="label branch-label1"><text><tspan class="row" x="0" dy="1em" xml:space="preserve">develop</tspan></text></g></g><line class="branch branch2" y2="180" x2="800" y1="180" x1="0"/><rect transform="translate(-19, 170.75)" height="22.5" width="88.90625" y="-1.25" x="-104.90625" ry="4" rx="4" class="branchLabelBkg label2"/><g class="branchLabel"><g transform="translate(-114.90625, 169.75)" class="label branch-label2"><text><tspan class="row" x="0" dy="1em" xml:space="preserve">feature/A</tspan></text></g></g><line class="branch branch3" y2="270" x2="800" y1="270" x1="0"/><rect transform="translate(-19, 260.75)" height="22.5" width="88.5234375" y="-1.25" x="-104.5234375" ry="4" rx="4" class="branchLabelBkg label3"/><g class="branchLabel"><g transform="translate(-114.5234375, 259.75)" class="label branch-label3"><text><tspan class="row" x="0" dy="1em" xml:space="preserve">feature/B</tspan></text></g></g><line class="branch branch4" y2="360" x2="800" y1="360" x1="0"/><rect transform="translate(-19, 350.75)" height="22.5" width="101.046875" y="-1.25" x="-117.046875" ry="4" rx="4" class="branchLabelBkg label4"/><g class="branchLabel"><g transform="translate(-127.046875, 349.75)" class="label branch-label4"><text><tspan class="row" x="0" dy="1em" xml:space="preserve">release/1.0</tspan></text></g></g><line class="branch branch5" y2="450" x2="800" y1="450" x1="0"/><rect transform="translate(-19, 440.75)" height="22.5" width="108.5078125" y="-1.25" x="-124.5078125" ry="4" rx="4" class="branchLabelBkg label5"/><g class="branchLabel"><g transform="translate(-134.5078125, 439.75)" class="label branch-label5"><text><tspan class="row" x="0" dy="1em" xml:space="preserve">hotfix/bug-1</tspan></text></g></g><line class="branch branch6" y2="540" x2="800" y1="540" x1="0"/><rect transform="translate(-19, 530.75)" height="22.5" width="89.0390625" y="-1.25" x="-105.0390625" ry="4" rx="4" class="branchLabelBkg label6"/><g class="branchLabel"><g transform="translate(-115.0390625, 529.75)" class="label branch-label6"><text><tspan class="row" x="0" dy="1em" xml:space="preserve">feature/C</tspan></text></g></g></g><g class="commit-arrows"><path class="arrow arrow1" d="M 10 0 L 10 70 A 20 20, 0, 0, 0, 30 90 L 60 90"/><path class="arrow arrow2" d="M 60 90 L 60 160 A 20 20, 0, 0, 0, 80 180 L 110 180"/><path class="arrow arrow2" d="M 110 180 L 160 180"/><path class="arrow arrow1" d="M 60 90 L 210 90"/><path class="arrow arrow2" d="M 160 180 L 190 180 A 20 20, 0, 0, 0, 210 160 L 210 90"/><path class="arrow arrow3" d="M 210 90 L 210 250 A 20 20, 0, 0, 0, 230 270 L 260 270"/><path class="arrow arrow3" d="M 260 270 L 310 270"/><path class="arrow arrow1" d="M 210 90 L 360 90"/><path class="arrow arrow3" d="M 310 270 L 340 270 A 20 20, 0, 0, 0, 360 250 L 360 90"/><path class="arrow arrow1" d="M 360 90 L 410 90"/><path class="arrow arrow4" d="M 410 90 L 410 340 A 20 20, 0, 0, 0, 430 360 L 460 360"/><path class="arrow arrow1" d="M 410 90 L 510 90"/><path class="arrow arrow4" d="M 460 360 L 490 360 A 20 20, 0, 0, 0, 510 340 L 510 90"/><path class="arrow arrow5" d="M 510 90 L 510 430 A 20 20, 0, 0, 0, 530 450 L 560 450"/><path class="arrow arrow1" d="M 510 90 L 610 90"/><path class="arrow arrow5" d="M 560 450 L 590 450 A 20 20, 0, 0, 0, 610 430 L 610 90"/><path class="arrow arrow1" d="M 610 90 L 660 90"/><path class="arrow arrow6" d="M 660 90 L 660 520 A 20 20, 0, 0, 0, 680 540 L 710 540"/><path class="arrow arrow1" d="M 660 90 L 760 90"/><path class="arrow arrow6" d="M 710 540 L 740 540 A 20 20, 0, 0, 0, 760 520 L 760 90"/></g><g class="commit-bullets"><circle class="commit Initial commit commit0" r="10" cy="0" cx="10"/><circle class="commit Implement feature A commit1" r="10" cy="90" cx="60"/><circle class="commit Add tests for feature A commit2" r="10" cy="180" cx="110"/><circle class="commit Fix bugs in feature A commit2" r="10" cy="180" cx="160"/><circle class="commit Merge feature A commit1" r="9" cy="90" cx="210"/><circle class="commit commit-merge Merge feature A commit1" r="6" cy="90" cx="210"/><circle class="commit Implement feature B commit3" r="10" cy="270" cx="260"/><circle class="commit Add tests for feature B commit3" r="10" cy="270" cx="310"/><circle class="commit Merge feature B commit1" r="9" cy="90" cx="360"/><circle class="commit commit-merge Merge feature B commit1" r="6" cy="90" cx="360"/><circle class="commit Update CI/CD pipeline commit1" r="10" cy="90" cx="410"/><circle class="commit Prepare release 1.0 commit4" r="10" cy="360" cx="460"/><circle class="commit Merge release 1.0 commit1" r="9" cy="90" cx="510"/><circle class="commit commit-merge Merge release 1.0 commit1" r="6" cy="90" cx="510"/><circle class="commit Fix critical bug in production commit5" r="10" cy="450" cx="560"/><circle class="commit Merge hotfix commit1" r="9" cy="90" cx="610"/><circle class="commit commit-merge Merge hotfix commit1" r="6" cy="90" cx="610"/><circle class="commit Implement feature C commit1" r="10" cy="90" cx="660"/><circle class="commit Add tests for feature C commit6" r="10" cy="540" cx="710"/><circle class="commit Merge feature C commit1" r="9" cy="90" cx="760"/><circle class="commit commit-merge Merge feature C commit1" r="6" cy="90" cx="760"/></g><g class="commit-labels"><g transform="translate(-35.18953125, 31.37484375) rotate(-45, 0, 0)"><rect height="15.5" width="66.8671875" y="13.5" x="-23.43359375" class="commit-label-bkg"/><text class="commit-label" y="25" x="-21.43359375">Initial commit</text></g><g transform="translate(-46.55984375, 41.54828125) rotate(-45, 50, 90)"><rect height="15.55078125" width="96.7890625" y="103.5" x="11.60546875" class="commit-label-bkg"/><text class="commit-label" y="115" x="13.60546875">Implement feature A</text></g><g transform="translate(-50.07781249999999, 44.6959375) rotate(-45, 100, 180)"><rect height="15.5" width="106.046875" y="193.5" x="56.9765625" class="commit-label-bkg"/><text class="commit-label" y="205" x="58.9765625">Add tests for feature A</text></g><g transform="translate(-46.29859375, 41.31453125) rotate(-45, 150, 180)"><rect height="15.55078125" width="96.1015625" y="193.5" x="111.94921875" class="commit-label-bkg"/><text class="commit-label" y="205" x="113.94921875">Fix bugs in feature A</text></g><g transform="translate(-38.45515625, 34.29671875) rotate(-45, 200, 90)"><rect height="15.55078125" width="75.4609375" y="103.5" x="172.26953125" class="commit-label-bkg"/><text class="commit-label" y="115" x="174.26953125">Merge feature A</text></g><g transform="translate(-46.67859375, 41.654531250000005) rotate(-45, 250, 270)"><rect height="15.55078125" width="97.1015625" y="283.5" x="211.44921875" class="commit-label-bkg"/><text class="commit-label" y="295" x="213.44921875">Implement feature B</text></g><g transform="translate(-50.1965625, 44.8021875) rotate(-45, 300, 270)"><rect height="15.5" width="106.359375" y="283.5" x="256.8203125" class="commit-label-bkg"/><text class="commit-label" y="295" x="258.8203125">Add tests for feature B</text></g><g transform="translate(-38.57390625, 34.40296875) rotate(-45, 350, 90)"><rect height="15.55078125" width="75.7734375" y="103.5" x="322.11328125" class="commit-label-bkg"/><text class="commit-label" y="115" x="324.11328125">Merge feature B</text></g><g transform="translate(-49.53453125, 44.20984375) rotate(-45, 400, 90)"><rect height="15.55078125" width="104.6171875" y="103.5" x="357.69140625" class="commit-label-bkg"/><text class="commit-label" y="115" x="359.69140625">Update CI/CD pipeline</text></g><g transform="translate(-44.47578125, 39.68359375) rotate(-45, 450, 360)"><rect height="15.55078125" width="91.3046875" y="373.5" x="414.34765625" class="commit-label-bkg"/><text class="commit-label" y="385" x="416.34765625">Prepare release 1.0</text></g><g transform="translate(-41.54859375, 37.06453125) rotate(-45, 500, 90)"><rect height="15.55078125" width="83.6015625" y="103.5" x="468.19921875" class="commit-label-bkg"/><text class="commit-label" y="115" x="470.19921875">Merge release 1.0</text></g><g transform="translate(-60.56640625, 54.080468749999994) rotate(-45, 550, 450)"><rect height="15.55078125" width="133.6484375" y="463.5" x="493.17578125" class="commit-label-bkg"/><text class="commit-label" y="475" x="495.17578125">Fix critical bug in production</text></g><g transform="translate(-32.686875, 29.135625) rotate(-45, 600, 90)"><rect height="15.55078125" width="60.28125" y="103.5" x="579.859375" class="commit-label-bkg"/><text class="commit-label" y="115" x="581.859375">Merge hotfix</text></g><g transform="translate(-46.80328125, 41.766093749999996) rotate(-45, 650, 90)"><rect height="15.55078125" width="97.4296875" y="103.5" x="611.28515625" class="commit-label-bkg"/><text class="commit-label" y="115" x="613.28515625">Implement feature C</text></g><g transform="translate(-50.31828125, 44.91109375) rotate(-45, 700, 540)"><rect height="15.5" width="106.6796875" y="553.5" x="656.66015625" class="commit-label-bkg"/><text class="commit-label" y="565" x="658.66015625">Add tests for feature C</text></g><g transform="translate(-38.695625, 34.511875) rotate(-45, 750, 90)"><rect height="15.55078125" width="76.09375" y="103.5" x="721.953125" class="commit-label-bkg"/><text class="commit-label" y="115" x="723.953125">Merge feature C</text></g></g></svg>